<?xml version="1.0" encoding="UTF-8" standalone="no"?>
<svg
   xmlns:dc="http://purl.org/dc/elements/1.1/"
   xmlns:cc="http://creativecommons.org/ns#"
   xmlns:rdf="http://www.w3.org/1999/02/22-rdf-syntax-ns#"
   xmlns:svg="http://www.w3.org/2000/svg"
   xmlns="http://www.w3.org/2000/svg"
   xmlns:sodipodi="http://sodipodi.sourceforge.net/DTD/sodipodi-0.dtd"
   xmlns:inkscape="http://www.inkscape.org/namespaces/inkscape"
   preserveAspectRatio="xMidYMid"
   width="299.414"
   height="413.972"
   viewBox="0 0 230 318"
   id="svg2"
   version="1.1"
   inkscape:version="0.91 r13725"
   sodipodi:docname="logo.svg">
  <metadata
     id="metadata10">
    <rdf:RDF>
      <cc:Work
         rdf:about="">
        <dc:format>image/svg+xml</dc:format>
        <dc:type
           rdf:resource="http://purl.org/dc/dcmitype/StillImage" />
      </cc:Work>
    </rdf:RDF>
  </metadata>
  <defs
     id="defs8" />
  <sodipodi:namedview
     pagecolor="#ffffff"
     bordercolor="#666666"
     borderopacity="1"
     objecttolerance="10"
     gridtolerance="10"
     guidetolerance="10"
     inkscape:pageopacity="0"
     inkscape:pageshadow="2"
     inkscape:window-width="1895"
     inkscape:window-height="983"
     id="namedview6"
     showgrid="false"
     inkscape:zoom="1.1401738"
     inkscape:cx="292.50421"
     inkscape:cy="129.05136"
     inkscape:window-x="1945"
     inkscape:window-y="79"
     inkscape:window-maximized="0"
     inkscape:current-layer="svg2" />
  <g
     id="g3398"
     transform="matrix(0.20520021,0,0,0.20520021,123.82958,126.0426)">
    <g
       transform="matrix(0.9602099,0,0,-0.9602099,-539.23919,866.67127)"
       id="g248">
      <path
         inkscape:connector-curvature="0"
         id="path250"
         style="fill:#231f20;fill-opacity:1;fill-rule:nonzero;stroke:none"
         d="m 0,0 -26.496,0 0,-25.742 26.496,0 c 9.666,0 14.229,5.14 14.229,12.957 C 14.229,-4.27 9.666,0 0,0 m -1.205,36.59 -25.291,0 0,-18.932 26.316,0 c 8.266,0 11.321,3.858 11.321,9.403 0,6.261 -3.627,9.529 -12.346,9.529 m 0.512,-81.254 -45.266,0 0,99.6 45.635,0 c 19.369,0 31.588,-9.241 31.588,-26.315 0,-8.525 -3.889,-15.365 -10.461,-19.353 7.929,-3.548 13.912,-10.832 13.912,-21.784 0,-20.904 -14.074,-32.148 -35.408,-32.148" />
    </g>
    <g
       transform="matrix(0.9602099,0,0,-0.9602099,-488.11362,909.55797)"
       id="g252">
      <path
         inkscape:connector-curvature="0"
         id="path254"
         style="fill:#231f20;fill-opacity:1;fill-rule:nonzero;stroke:none"
         d="m 0,0 0,99.599 69.149,0 0,-19.482 -49.303,0 0,-17.24 28.679,0 0,-19.319 -28.679,0 0,-24.057 51.416,0 L 71.262,0 0,0 Z" />
    </g>
    <g
       transform="matrix(0.9602099,0,0,-0.9602099,-372.84157,911.06987)"
       id="g256">
      <path
         inkscape:connector-curvature="0"
         id="path258"
         style="fill:#231f20;fill-opacity:1;fill-rule:nonzero;stroke:none"
         d="m 0,0 c -16.598,0 -31.152,6.971 -38.721,18.072 l 14.444,12.809 c 6.937,-8.1 15.89,-11.387 25.427,-11.387 11.8,0 17.332,3.287 17.332,10.809 0,6.406 -3.386,9.263 -22.136,13.558 -18.336,4.252 -31.168,10.077 -31.168,29.717 0,18.057 15.961,29.152 35.564,29.152 15.463,0 26.936,-5.826 36.315,-15.64 L 22.65,73.152 C 16.205,79.688 9.143,83.402 0,83.402 c -10.688,0 -14.203,-4.537 -14.203,-8.953 0,-6.267 4.23,-8.285 20.098,-11.978 C 21.604,58.783 39.176,53.338 39.176,31.736 39.176,12.818 27.199,0 0,0" />
    </g>
    <g
       transform="matrix(0.9602099,0,0,-0.9602099,-276.96684,832.49787)"
       id="g260">
      <path
         inkscape:connector-curvature="0"
         id="path262"
         style="fill:#231f20;fill-opacity:1;fill-rule:nonzero;stroke:none"
         d="m 0,0 -22.967,0 0,-25.58 23.196,0 c 9.251,0 14.193,4.231 14.193,12.932 C 14.422,-3.955 8.738,0 0,0 m -1.018,-44.961 -21.949,0 0,-35.292 -19.931,0 0,99.599 43.496,0 c 18.859,0 34.327,-10.383 34.327,-31.58 0,-23.055 -15.326,-32.727 -35.943,-32.727" />
    </g>
    <g
       transform="matrix(0.9602099,0,0,-0.9602099,-190.56862,831.41197)"
       id="g264">
      <path
         inkscape:connector-curvature="0"
         id="path266"
         style="fill:#231f20;fill-opacity:1;fill-rule:nonzero;stroke:none"
         d="m 0,0 c -16.104,0 -22.75,-13.779 -22.75,-31.56 0,-17.807 6.646,-31.629 22.75,-31.629 16.106,0 22.779,13.822 22.779,31.629 C 22.779,-13.779 16.106,0 0,0 m 0,-82.959 c -27.148,0 -43.227,21.076 -43.227,51.399 0,30.292 16.079,51.332 43.227,51.332 27.227,0 43.266,-21.04 43.266,-51.332 0,-30.323 -16.039,-51.399 -43.266,-51.399" />
    </g>
    <g
       transform="matrix(0.9602099,0,0,-0.9602099,-73.618052,909.55797)"
       id="g268">
      <path
         inkscape:connector-curvature="0"
         id="path270"
         style="fill:#231f20;fill-opacity:1;fill-rule:nonzero;stroke:none"
         d="m 0,0 -26.997,48.107 -15.948,-18.801 0,-29.306 -19.914,0 0,99.599 19.914,0 0,-28.328 c 0,-3.666 -0.151,-12.646 -0.264,-15.785 1.43,2.289 5.125,6.836 7.799,10.097 l 27.885,34.016 24.125,0 L -12.637,65.154 23.947,0 0,0 Z" />
    </g>
    <g
       transform="matrix(0.9602099,0,0,-0.9602099,-41.158422,909.55797)"
       id="g272">
      <path
         inkscape:connector-curvature="0"
         id="path274"
         style="fill:#231f20;fill-opacity:1;fill-rule:nonzero;stroke:none"
         d="m 0,0 0,99.599 69.16,0 0,-19.482 -49.269,0 0,-17.24 28.629,0 0,-19.319 -28.629,0 0,-24.057 51.425,0 L 71.316,0 0,0 Z" />
    </g>
    <g
       transform="matrix(0.9602099,0,0,-0.9602099,133.43847,909.55797)"
       id="g276">
      <path
         inkscape:connector-curvature="0"
         id="path278"
         style="fill:#231f20;fill-opacity:1;fill-rule:nonzero;stroke:none"
         d="M 0,0 0,67.48 0,78.113 C -1.01,74.279 -3.748,66.881 -5.875,61.613 L -32.578,-2.565 -58.686,61.613 c -2.142,5.129 -4.935,12.666 -5.949,16.5 l 0,-10.633 0,-67.48 -10.654,0 0,99.599 12.416,0 23.516,-59.613 c 2.399,-5.988 5.918,-15.228 7.023,-19.344 1.311,4.264 4.93,13.496 7.168,19.344 l 23.775,59.613 12.096,0 L 10.705,0 0,0 Z" />
    </g>
    <g
       transform="matrix(0.9602099,0,0,-0.9602099,204.11702,822.12097)"
       id="g280">
      <path
         inkscape:connector-curvature="0"
         id="path282"
         style="fill:#231f20;fill-opacity:1;fill-rule:nonzero;stroke:none"
         d="m 0,0 c -17.221,0 -29.857,-16.078 -29.857,-41.119 0,-25.035 13.068,-41.412 30.43,-41.412 17.198,0 30.017,16.087 30.017,41.15 C 30.59,-16.352 17.393,0 0,0 m 0.154,-92.635 c -24.715,0 -41.177,21.213 -41.177,51.254 0,29.994 16.673,51.477 41.466,51.477 24.774,0 41.203,-21.201 41.203,-51.215 0,-30.012 -16.736,-51.516 -41.492,-51.516" />
    </g>
    <g
       transform="matrix(0.9602099,0,0,-0.9602099,324.07005,909.55797)"
       id="g284">
      <path
         inkscape:connector-curvature="0"
         id="path286"
         style="fill:#231f20;fill-opacity:1;fill-rule:nonzero;stroke:none"
         d="m 0,0 -43.511,68.169 c -2.147,3.409 -5.825,9.944 -7.161,12.5 l 0,-6.822 0,-73.847 -10.644,0 0,99.599 10.832,0 43.142,-69.437 c 2.119,-3.43 5.772,-9.957 7.051,-12.529 l 0,6.835 0,75.131 10.692,0 L 10.401,0 0,0 Z" />
    </g>
    <g
       transform="matrix(0.9602099,0,0,-0.9602099,359.15343,909.55797)"
       id="g288">
      <path
         inkscape:connector-curvature="0"
         id="path290"
         style="fill:#231f20;fill-opacity:1;fill-rule:nonzero;stroke:none"
         d="m 0,0 0,99.599 60.27,0 0,-10.084 -49.122,0 0,-31.302 28.47,0 0,-10.106 -28.47,0 0,-38.002 51.244,0 L 62.392,0 0,0 Z" />
    </g>
    <g
       transform="matrix(0.9602099,0,0,-0.9602099,474.42734,871.56987)"
       id="g292">
      <path
         inkscape:connector-curvature="0"
         id="path294"
         style="fill:#231f20;fill-opacity:1;fill-rule:nonzero;stroke:none"
         d="m 0,0 0,-39.562 -11.166,0 0,39.408 -34.107,60.191 12.619,0 15.951,-28.576 c 4.017,-7.275 8.42,-15.537 11.289,-21.344 2.797,5.807 7.182,14.203 11.217,21.344 l 15.988,28.576 12.283,0 L 0,0 Z" />
    </g>
    <g
       transform="matrix(0.9602099,0,0,-0.9602099,385.45043,31.901911)"
       id="g296">
      <path
         inkscape:connector-curvature="0"
         id="path298"
         style="fill:#231f20;fill-opacity:1;fill-rule:nonzero;stroke:none"
         d="m 0,0 -444.111,256.429 -237.85,-137.273 0,528.979 -206.314,-119.153 0,-528.992 0,-428.594 444.164,-256.42 L 0,-428.604 0,0 Z" />
    </g>
    <g
       transform="matrix(0.9602099,0,0,-0.9602099,-269.37527,353.42593)"
       id="g300">
      <path
         inkscape:connector-curvature="0"
         id="path302"
         style="fill:#eb0b80;fill-opacity:1;fill-rule:nonzero;stroke:none"
         d="M 0,0 0,215.674 237.85,352.951 475.547,215.682 475.547,0 0,0 Z" />
    </g>
  </g>
</svg>
